<?xml version="1.0" standalone="no"?>
<!DOCTYPE svg PUBLIC "-//W3C//DTD SVG 20010904//EN"
 "http://www.w3.org/TR/2001/REC-SVG-20010904/DTD/svg10.dtd">
<svg version="1.0" xmlns="http://www.w3.org/2000/svg"
 width="700.000000pt" height="700.000000pt" viewBox="0 0 700.000000 700.000000"
 preserveAspectRatio="xMidYMid meet">
<metadata>
Created by potrace 1.14, written by Peter Selinger 2001-2017
</metadata>
<g transform="translate(0.000000,700.000000) scale(0.100000,-0.100000)"
fill="#000000" stroke="none">
<path d="M3279 5656 c-2 -2 -24 -7 -49 -10 -25 -3 -56 -8 -70 -11 -13 -2 -42
-7 -65 -10 -74 -11 -285 -71 -352 -101 -17 -8 -35 -14 -40 -14 -5 0 -42 -16
-82 -35 -39 -19 -73 -35 -75 -35 -3 0 -43 -22 -91 -50 -48 -27 -90 -50 -95
-50 -5 0 -10 -3 -12 -7 -1 -5 -30 -26 -63 -48 -33 -21 -74 -51 -91 -65 -17
-14 -51 -41 -74 -60 -115 -93 -294 -289 -384 -418 -74 -106 -212 -352 -222
-397 -1 -5 -21 -61 -44 -123 -23 -61 -43 -120 -45 -130 -2 -9 -10 -46 -19 -82
-15 -67 -20 -90 -33 -169 -8 -49 -10 -60 -12 -63 -3 -5 -10 -129 -12 -210 -1
-51 -5 -75 -12 -71 -6 4 -7 1 -1 -8 5 -8 10 -30 11 -49 14 -218 14 -223 44
-370 27 -131 28 -136 40 -167 6 -16 11 -30 11 -33 3 -30 71 -208 109 -286 21
-45 39 -86 39 -93 0 -6 5 -11 10 -11 6 0 10 -5 10 -10 0 -17 109 -187 178
-278 89 -116 187 -221 309 -329 60 -52 169 -135 201 -152 12 -7 20 -17 16 -23
-4 -7 -3 -8 4 -4 6 3 36 -10 67 -30 83 -53 257 -137 360 -174 50 -18 99 -36
110 -41 11 -4 40 -13 65 -19 25 -6 52 -14 60 -17 8 -3 22 -7 30 -8 8 -1 33 -5
55 -9 85 -17 205 -36 224 -36 9 0 12 10 9 35 -2 19 0 35 5 35 4 0 5 5 2 11 -9
14 -10 124 -1 138 4 6 4 11 -1 11 -4 0 -8 115 -8 257 0 248 -1 256 -20 259
-11 2 -36 6 -55 10 -19 4 -38 7 -42 6 -5 -1 -8 3 -8 9 0 5 -4 7 -10 4 -9 -6
-168 45 -220 70 -123 59 -160 80 -160 88 0 6 -3 7 -6 4 -20 -20 -291 213 -383
328 -70 88 -203 315 -184 315 4 0 3 4 -3 8 -7 4 -26 48 -42 97 -32 94 -34 103
-58 225 -18 88 -25 329 -12 403 5 29 11 70 14 92 3 22 10 58 16 80 6 22 12 45
14 52 5 29 27 89 37 101 5 6 7 12 3 12 -3 0 6 26 20 58 41 94 88 182 96 182 5
0 8 4 8 9 0 11 57 101 74 116 6 6 24 28 41 50 59 80 218 221 303 270 17 11 32
23 32 27 0 4 9 8 20 8 11 0 20 4 20 8 0 23 337 161 360 147 4 -3 10 -1 12 4 1
5 19 11 38 14 19 4 44 8 55 11 11 2 25 5 31 5 8 1 12 29 12 86 0 46 3 89 7 95
3 5 3 10 -2 10 -4 0 -8 72 -8 160 0 88 4 160 8 160 5 0 5 5 2 11 -4 6 -7 57
-7 115 0 91 -6 123 -19 110z"/>
<path d="M4570 4644 c-85 -141 -160 -263 -168 -270 -7 -8 -11 -14 -7 -14 3 0
-10 -25 -30 -55 -19 -31 -35 -57 -35 -60 0 -2 -13 -23 -29 -47 -16 -24 -39
-62 -51 -85 -12 -24 -25 -41 -29 -38 -4 2 -8 -2 -8 -9 0 -12 -44 -91 -85 -155
-10 -14 -21 -33 -25 -41 -14 -27 -175 -294 -194 -322 -45 -65 -61 -101 -47
-109 7 -5 16 -9 19 -9 3 0 15 -9 27 -20 12 -12 22 -18 22 -16 0 3 35 -15 78
-40 66 -39 296 -176 342 -204 99 -60 325 -192 349 -204 30 -16 31 -15 129 44
55 33 105 60 111 60 6 0 11 4 11 9 0 5 8 11 18 15 9 3 31 15 47 26 17 11 50
31 75 45 25 14 61 35 80 46 19 12 112 66 205 121 94 55 182 108 197 117 l26
16 -26 47 c-22 39 -197 332 -277 464 -21 34 -141 234 -334 554 -61 102 -125
208 -142 235 -17 28 -45 74 -63 103 l-32 52 -154 -256z"/>
<path d="M5586 3161 c-5 -8 -70 -48 -191 -117 -11 -6 -128 -76 -260 -154 -132
-78 -260 -154 -285 -168 -25 -14 -62 -36 -82 -49 -21 -12 -40 -23 -43 -23 -16
0 -244 144 -239 151 3 5 -1 6 -9 4 -7 -3 -29 5 -48 17 -19 13 -54 34 -79 47
-71 39 -110 67 -103 75 4 4 1 5 -7 1 -8 -3 -39 11 -68 30 -30 19 -55 35 -57
35 -2 0 -54 30 -117 68 -62 37 -122 71 -132 75 -19 8 -19 7 -1 -13 10 -11 45
-60 79 -109 71 -103 331 -469 349 -491 7 -8 29 -40 50 -70 20 -30 60 -86 88
-125 27 -38 62 -88 76 -110 14 -22 30 -41 34 -43 5 -2 9 -8 9 -13 0 -6 9 -19
20 -31 11 -12 20 -28 20 -35 0 -7 4 -13 8 -13 5 0 35 -38 67 -85 53 -78 59
-84 72 -68 8 10 44 61 80 113 37 52 70 97 75 98 4 2 8 9 8 15 0 7 10 23 23 37
13 14 26 33 30 43 3 9 11 17 17 17 5 0 10 4 10 9 0 17 61 101 72 101 6 0 9 3
5 6 -3 3 20 41 51 85 31 43 102 142 157 220 55 78 106 148 113 155 6 7 12 15
12 18 0 4 105 154 157 225 31 40 55 81 50 81 -3 0 -8 -4 -11 -9z"/>
</g>
</svg>
